<svg width="200" height="200" viewBox="0 0 200 200" fill="none" xmlns="http://www.w3.org/2000/svg">
  <rect width="200" height="200" fill="white"/>
  <g fill="#1A365D">
    <!-- 简化的二维码图案 -->
    <rect x="20" y="20" width="40" height="40"/>
    <rect x="140" y="20" width="40" height="40"/>
    <rect x="20" y="140" width="40" height="40"/>
    <rect x="80" y="80" width="40" height="40"/>
    <rect x="140" y="140" width="40" height="40"/>
    <!-- 小方块组成的二维码图案 -->
    <rect x="70" y="20" width="10" height="10"/>
    <rect x="90" y="20" width="10" height="10"/>
    <rect x="110" y="20" width="10" height="10"/>
    <rect x="20" y="70" width="10" height="10"/>
    <rect x="20" y="90" width="10" height="10"/>
    <rect x="20" y="110" width="10" height="10"/>
    <rect x="170" y="70" width="10" height="10"/>
    <rect x="170" y="90" width="10" height="10"/>
    <rect x="170" y="110" width="10" height="10"/>
    <rect x="70" y="170" width="10" height="10"/>
    <rect x="90" y="170" width="10" height="10"/>
    <rect x="110" y="170" width="10" height="10"/>
  </g>
</svg> 