<svg width="512" height="512" viewBox="0 0 512 512" fill="none" xmlns="http://www.w3.org/2000/svg">
  <!-- 背景圆形 -->
  <circle cx="256" cy="256" r="248" fill="#1E3A8A" />
  <circle cx="256" cy="256" r="220" fill="#F3F4F6" />
  
  <!-- 字母L图形 - 代表刘伍岳的姓氏首字母 -->
  <path d="M180 140V320H332" stroke="#1E3A8A" stroke-width="40" stroke-linecap="round" stroke-linejoin="round" />
  
  <!-- 代码符号 </> -->
  <path d="M150 360L120 330L150 300" stroke="#F59E0B" stroke-width="16" stroke-linecap="round" stroke-linejoin="round" />
  <path d="M362 360L392 330L362 300" stroke="#F59E0B" stroke-width="16" stroke-linecap="round" stroke-linejoin="round" />
  
  <!-- 火箭图形 - 代表进步和创新 -->
  <path d="M256 100C256 100 290 130 290 170C290 195 270 215 256 215C242 215 222 195 222 170C222 130 256 100 256 100Z" fill="#10B981" />
  <path d="M256 215V250" stroke="#10B981" stroke-width="10" stroke-linecap="round" />
  <path d="M240 230L256 250L272 230" stroke="#10B981" stroke-width="10" stroke-linecap="round" stroke-linejoin="round" />
  
  <!-- 装饰元素 -->
  <circle cx="256" cy="256" r="248" stroke="#F59E0B" stroke-width="4" stroke-dasharray="4 12" />
</svg> 