<svg width="1200" height="500" xmlns="http://www.w3.org/2000/svg">
  <defs>
    <linearGradient id="grad1" x1="0%" y1="0%" x2="100%" y2="0%">
      <stop offset="0%" style="stop-color:#1A365D;stop-opacity:1" />
      <stop offset="100%" style="stop-color:#2B6CB0;stop-opacity:1" />
    </linearGradient>
  </defs>
  <rect width="100%" height="100%" fill="url(#grad1)"/>
  
  <!-- 建筑群 -->
  <g fill="#ffffff" opacity="0.2">
    <rect x="100" y="200" width="150" height="300" rx="2"/>
    <rect x="300" y="150" width="150" height="350" rx="2"/>
    <rect x="500" y="100" width="150" height="400" rx="2"/>
    <rect x="700" y="180" width="150" height="320" rx="2"/>
    <rect x="900" y="220" width="150" height="280" rx="2"/>
    
    <!-- 窗户 -->
    <g opacity="0.5">
      <rect x="120" y="230" width="30" height="40" rx="1"/>
      <rect x="170" y="230" width="30" height="40" rx="1"/>
      <rect x="120" y="290" width="30" height="40" rx="1"/>
      <rect x="170" y="290" width="30" height="40" rx="1"/>
      <rect x="120" y="350" width="30" height="40" rx="1"/>
      <rect x="170" y="350" width="30" height="40" rx="1"/>
      <rect x="120" y="410" width="30" height="40" rx="1"/>
      <rect x="170" y="410" width="30" height="40" rx="1"/>
      
      <rect x="320" y="180" width="30" height="40" rx="1"/>
      <rect x="370" y="180" width="30" height="40" rx="1"/>
      <rect x="320" y="240" width="30" height="40" rx="1"/>
      <rect x="370" y="240" width="30" height="40" rx="1"/>
      <rect x="320" y="300" width="30" height="40" rx="1"/>
      <rect x="370" y="300" width="30" height="40" rx="1"/>
      <rect x="320" y="360" width="30" height="40" rx="1"/>
      <rect x="370" y="360" width="30" height="40" rx="1"/>
      <rect x="320" y="420" width="30" height="40" rx="1"/>
      <rect x="370" y="420" width="30" height="40" rx="1"/>
    </g>
  </g>
  
  <text x="600" y="250" font-family="Arial, sans-serif" font-size="40" text-anchor="middle" fill="white">广州安居集团</text>
</svg> 