<svg width="800" height="280" xmlns="http://www.w3.org/2000/svg">
  <defs>
    <linearGradient id="buildingGrad" x1="0%" y1="0%" x2="100%" y2="100%">
      <stop offset="0%" style="stop-color:#1A365D;stop-opacity:0.8" />
      <stop offset="100%" style="stop-color:#2B6CB0;stop-opacity:0.6" />
    </linearGradient>
  </defs>
  
  <rect width="100%" height="100%" fill="#f8f9fa" opacity="0.4"/>
  
  <!-- 企业建筑图形 -->
  <g transform="translate(400, 50)">
    <!-- 主楼 -->
    <rect x="-100" y="0" width="200" height="180" fill="url(#buildingGrad)" rx="2"/>
    
    <!-- 窗户 -->
    <g fill="#ffffff" opacity="0.8">
      <rect x="-80" y="20" width="30" height="20" rx="1"/>
      <rect x="-30" y="20" width="30" height="20" rx="1"/>
      <rect x="20" y="20" width="30" height="20" rx="1"/>
      <rect x="70" y="20" width="30" height="20" rx="1"/>
      
      <rect x="-80" y="60" width="30" height="20" rx="1"/>
      <rect x="-30" y="60" width="30" height="20" rx="1"/>
      <rect x="20" y="60" width="30" height="20" rx="1"/>
      <rect x="70" y="60" width="30" height="20" rx="1"/>
      
      <rect x="-80" y="100" width="30" height="20" rx="1"/>
      <rect x="-30" y="100" width="30" height="20" rx="1"/>
      <rect x="20" y="100" width="30" height="20" rx="1"/>
      <rect x="70" y="100" width="30" height="20" rx="1"/>
      
      <rect x="-80" y="140" width="30" height="20" rx="1"/>
      <rect x="-30" y="140" width="30" height="20" rx="1"/>
      <rect x="20" y="140" width="30" height="20" rx="1"/>
      <rect x="70" y="140" width="30" height="20" rx="1"/>
    </g>
    
    <!-- 门 -->
    <rect x="-15" y="140" width="30" height="40" fill="#ffffff" opacity="0.9"/>
    
    <!-- 路径 -->
    <path d="M-15 180 L-15 200 L15 200 L15 180" fill="#ffffff" opacity="0.7"/>
  </g>
  
  <!-- 企业图表元素 -->
  <g transform="translate(650, 120)">
    <rect x="0" y="0" width="30" height="100" fill="#1A365D" opacity="0.8"/>
    <rect x="40" y="20" width="30" height="80" fill="#2B6CB0" opacity="0.8"/>
    <rect x="80" y="40" width="30" height="60" fill="#3B82F6" opacity="0.8"/>
    <rect x="120" y="60" width="30" height="40" fill="#60A5FA" opacity="0.8"/>
  </g>
</svg> 