<svg width="800" height="280" xmlns="http://www.w3.org/2000/svg">
  <defs>
    <linearGradient id="newsGrad" x1="0%" y1="0%" x2="100%" y2="0%">
      <stop offset="0%" style="stop-color:#2C5282;stop-opacity:0.8" />
      <stop offset="100%" style="stop-color:#4299E1;stop-opacity:0.6" />
    </linearGradient>
  </defs>
  
  <rect width="100%" height="100%" fill="#f8f9fa" opacity="0.4"/>
  
  <!-- 新闻元素 -->
  <g transform="translate(550, 80)">
    <!-- 报纸图标 -->
    <rect x="-100" y="0" width="180" height="120" fill="url(#newsGrad)" rx="5"/>
    
    <!-- 报纸内容线条 -->
    <g stroke="#ffffff" stroke-width="2" opacity="0.8">
      <line x1="-80" y1="20" x2="60" y2="20" />
      <line x1="-80" y1="40" x2="60" y2="40" />
      <line x1="-80" y1="60" x2="60" y2="60" />
      <line x1="-80" y1="80" x2="0" y2="80" />
      <line x1="-80" y1="100" x2="0" y2="100" />
    </g>
    
    <!-- 照片图标 -->
    <rect x="20" y="80" width="60" height="40" fill="#ffffff" opacity="0.8" rx="2"/>
    <circle cx="40" cy="95" r="8" fill="#2C5282" opacity="0.9"/>
    <rect x="30" y="105" width="40" height="5" fill="#2C5282" opacity="0.9" rx="1"/>
  </g>
  
  <!-- 新闻发布会元素 -->
  <g transform="translate(400, 180)">
    <!-- 话筒 -->
    <rect x="120" y="10" width="10" height="40" fill="#2C5282" opacity="0.9"/>
    <circle cx="125" cy="0" r="10" fill="#2C5282" opacity="0.9"/>
    
    <!-- 话筒 -->
    <rect x="140" y="5" width="10" height="45" fill="#4299E1" opacity="0.9"/>
    <circle cx="145" cy="-5" r="10" fill="#4299E1" opacity="0.9"/>
    
    <!-- 话筒 -->
    <rect x="160" y="0" width="10" height="50" fill="#63B3ED" opacity="0.9"/>
    <circle cx="165" cy="-10" r="10" fill="#63B3ED" opacity="0.9"/>
  </g>
  
  <!-- 社交媒体图标 -->
  <g transform="translate(650, 180)">
    <circle cx="0" cy="0" r="15" fill="#2C5282" opacity="0.8"/>
    <circle cx="40" cy="0" r="15" fill="#3182CE" opacity="0.8"/>
    <circle cx="80" cy="0" r="15" fill="#4299E1" opacity="0.8"/>
    
    <line x1="-50" y1="0" x2="-15" y2="0" stroke="#2C5282" stroke-width="2" opacity="0.6"/>
    <line x1="15" y1="0" x2="25" y2="0" stroke="#3182CE" stroke-width="2" opacity="0.6"/>
    <line x1="55" y1="0" x2="65" y2="0" stroke="#4299E1" stroke-width="2" opacity="0.6"/>
    <line x1="95" y1="0" x2="120" y2="0" stroke="#63B3ED" stroke-width="2" opacity="0.6"/>
  </g>
</svg> 