<svg width="800" height="280" xmlns="http://www.w3.org/2000/svg">
  <defs>
    <linearGradient id="partyGrad" x1="0%" y1="0%" x2="100%" y2="0%">
      <stop offset="0%" style="stop-color:#C53030;stop-opacity:0.8" />
      <stop offset="100%" style="stop-color:#F56565;stop-opacity:0.6" />
    </linearGradient>
  </defs>
  
  <rect width="100%" height="100%" fill="#f8f9fa" opacity="0.4"/>
  
  <!-- 党徽部分 -->
  <g transform="translate(550, 140)">
    <circle cx="0" cy="0" r="70" fill="url(#partyGrad)"/>
    <g fill="#ffffff" opacity="0.9">
      <!-- 镰刀 -->
      <path d="M-10,-10 C-30,10 -20,40 0,50 C-40,30 -50,-20 -10,-10 Z" />
      <!-- 锤子 -->
      <rect x="10" y="-50" width="12" height="40" />
      <rect x="-10" y="-10" width="30" height="20" />
    </g>
  </g>
  
  <!-- 五角星 -->
  <g transform="translate(400, 80)">
    <polygon 
      points="0,-20 5,-5 20,-5 10,5 15,20 0,10 -15,20 -10,5 -20,-5 -5,-5" 
      fill="#C53030" 
      opacity="0.8" 
    />
  </g>
  
  <!-- 五角星 -->
  <g transform="translate(650, 70)">
    <polygon 
      points="0,-15 3,-3 15,-3 6,3 9,15 0,7 -9,15 -6,3 -15,-3 -3,-3" 
      fill="#C53030" 
      opacity="0.8" 
    />
  </g>
  
  <!-- 五角星 -->
  <g transform="translate(700, 200)">
    <polygon 
      points="0,-25 7,-7 25,-7 10,7 17,25 0,15 -17,25 -10,7 -25,-7 -7,-7" 
      fill="#C53030" 
      opacity="0.8" 
    />
  </g>
  
  <!-- 装饰线条 -->
  <g stroke="#C53030" stroke-width="2" opacity="0.6">
    <line x1="350" y1="50" x2="750" y2="50" />
    <line x1="350" y1="230" x2="750" y2="230" />
  </g>
</svg> 